<svg width="24" height="24" viewBox="0 0 24 24" fill="none" xmlns="http://www.w3.org/2000/svg">
<g clip-path="url(#clip0_595_6400)">
<path fill-rule="evenodd" clip-rule="evenodd" d="M7.01081 8.92532C6.86592 7.57829 8.20499 6.58908 9.38802 7.16968L16.0438 10.4351C17.3187 11.0601 17.3187 12.9393 16.0438 13.5643L9.38802 16.8303C8.20499 17.4109 6.86648 16.4217 7.01081 15.0747L7.27829 12.5768H11.802C11.9498 12.5768 12.0915 12.516 12.196 12.4078C12.3005 12.2996 12.3593 12.1528 12.3593 11.9997C12.3593 11.8466 12.3005 11.6998 12.196 11.5916C12.0915 11.4834 11.9498 11.4226 11.802 11.4226H7.27884L7.01081 8.92532Z" fill="#FF1A6E"/>
<circle cx="12" cy="12" r="11.5" stroke="#FF1A6E"/>
</g>
<defs>
<clipPath id="clip0_595_6400">
<rect width="24" height="24" fill="white"/>
</clipPath>
</defs>
</svg>
