<svg width="24" height="24" viewBox="0 0 24 24" fill="none" xmlns="http://www.w3.org/2000/svg">
<path d="M17.7549 13.9999C18.0502 14 18.3427 14.0583 18.6155 14.1715C18.8883 14.2846 19.1362 14.4504 19.3449 14.6593C19.5536 14.8682 19.7192 15.1162 19.8321 15.3892C19.945 15.6621 20.003 15.9545 20.0029 16.2499V17.1679C20.0029 17.7409 19.8239 18.2996 19.4909 18.7659C17.9449 20.9299 15.4209 22.0009 12.0009 22.0009C8.57891 22.0009 6.05591 20.9289 4.51391 18.7649C4.18203 18.2989 4.00376 17.741 4.00391 17.1689V16.2489C4.00391 15.6524 4.24085 15.0804 4.66262 14.6586C5.08439 14.2368 5.65643 13.9999 6.25291 13.9999H17.7549ZM11.9999 2.00488C12.6565 2.00488 13.3067 2.13421 13.9133 2.38548C14.52 2.63676 15.0711 3.00506 15.5354 3.46935C15.9997 3.93364 16.368 4.48484 16.6193 5.09147C16.8706 5.69809 16.9999 6.34827 16.9999 7.00488C16.9999 7.66149 16.8706 8.31167 16.6193 8.9183C16.368 9.52493 15.9997 10.0761 15.5354 10.5404C15.0711 11.0047 14.52 11.373 13.9133 11.6243C13.3067 11.8756 12.6565 12.0049 11.9999 12.0049C10.6738 12.0049 9.40205 11.4781 8.46437 10.5404C7.52669 9.60273 6.99991 8.33097 6.99991 7.00488C6.99991 5.6788 7.52669 4.40703 8.46437 3.46935C9.40205 2.53167 10.6738 2.00488 11.9999 2.00488Z" fill="#BABABA"/>
<path d="M19.0714 10.9286V8.57143C19.0714 8.28727 18.9585 8.01475 18.7576 7.81381L18.4056 8.16585L18.7576 7.81381C18.5567 7.61288 18.2842 7.5 18 7.5C17.7158 7.5 17.4433 7.61288 17.2424 7.81381C17.0415 8.01475 16.9286 8.28727 16.9286 8.57143V10.9286H14.5714C14.2873 10.9286 14.0147 11.0415 13.8138 11.2424C13.6129 11.4433 13.5 11.7158 13.5 12C13.5 12.2842 13.6129 12.5567 13.8138 12.7576L14.1659 12.4056L13.8138 12.7576C14.0147 12.9585 14.2873 13.0714 14.5714 13.0714H16.9286V15.4286C16.9286 15.7127 17.0415 15.9853 17.2424 16.1862C17.4433 16.3871 17.7158 16.5 18 16.5C18.2842 16.5 18.5567 16.3871 18.7576 16.1862C18.9585 15.9853 19.0714 15.7127 19.0714 15.4286V13.0714H21.4286C21.7127 13.0714 21.9853 12.9585 22.1862 12.7576C22.3871 12.5567 22.5 12.2842 22.5 12C22.5 11.7158 22.3871 11.4433 22.1862 11.2424C21.9853 11.0415 21.7127 10.9286 21.4286 10.9286H19.0714Z" fill="#BABABA" stroke="white"/>
</svg>
