<svg width="48" height="48" viewBox="0 0 48 48" fill="none" xmlns="http://www.w3.org/2000/svg">
<g clip-path="url(#clip0_90_5613)">
<mask id="mask0_90_5613" style="mask-type:luminance" maskUnits="userSpaceOnUse" x="0" y="0" width="48" height="48">
<path d="M48 0H0V48H48V0Z" fill="white"/>
</mask>
<g mask="url(#mask0_90_5613)">
<path fill-rule="evenodd" clip-rule="evenodd" d="M48 44.1593C48 46.2812 46.282 48 44.1511 48H3.84883C1.72765 48 0 46.2812 0 44.1593V3.84074C0 1.71877 1.72765 0 3.84883 0H44.1511C46.2724 0 48 1.71877 48 3.84074V44.1593Z" fill="#FFE600"/>
<path fill-rule="evenodd" clip-rule="evenodd" d="M24.0034 12C17.0998 12 11.5 16.5926 11.5 22.2624C11.5 25.9067 13.8207 29.1041 17.3018 30.9263L16.1219 35.4986C16.0763 35.634 16.1154 35.7899 16.2132 35.8916C16.2784 35.9592 16.3696 36 16.4674 36C16.5456 36 16.6173 35.966 16.6825 35.9118L21.7477 32.3556C22.4843 32.4639 23.234 32.5249 23.9968 32.5249C30.9002 32.5249 36.5 27.9323 36.5 22.2624C36.5065 16.5926 30.9068 12 24.0034 12Z" fill="#381E1E"/>
<path fill-rule="evenodd" clip-rule="evenodd" d="M16.3676 20.1334H15.1629C14.9957 20.1334 14.8574 20.0925 14.7363 20.0166C14.6153 19.9406 14.5461 19.8295 14.5173 19.6894C14.5115 19.6543 14.5058 19.6075 14.5 19.5667C14.5 19.3915 14.5634 19.2512 14.6902 19.1519C14.817 19.0526 14.9727 19 15.1629 19H18.8404C19.0076 19 19.1517 19.041 19.2671 19.1169C19.3881 19.1928 19.4629 19.298 19.4918 19.444C19.4976 19.485 19.5033 19.5258 19.4976 19.5667C19.4976 19.7478 19.4342 19.8881 19.3132 19.9874C19.1921 20.0867 19.0365 20.1334 18.8404 20.1334H17.6415V24.334C17.6415 24.5326 17.5839 24.6961 17.4686 24.8188C17.3533 24.9415 17.1977 25 17.0017 25C16.8403 25 16.7077 24.9532 16.5924 24.8655C16.4771 24.772 16.408 24.6553 16.3791 24.4975C16.3676 24.4391 16.3676 24.3865 16.3676 24.3282V20.1334Z" fill="#FFE600"/>
<path fill-rule="evenodd" clip-rule="evenodd" d="M20.2468 19.4015C20.2983 19.2582 20.3728 19.155 20.4759 19.0918C20.579 19.0288 20.705 19 20.8655 19H21.169C21.3351 19 21.4725 19.0344 21.5813 19.0976C21.6902 19.1606 21.7817 19.2926 21.8448 19.4818L23.3739 23.9159C23.4256 24.0536 23.4598 24.1683 23.477 24.2714C23.4885 24.3346 23.5 24.3862 23.5 24.4264C23.5 24.587 23.437 24.7247 23.3224 24.8337C23.2078 24.9485 23.0647 25 22.9043 25C22.6122 25 22.4233 24.8796 22.3374 24.6385L22.0109 23.6749H19.9719L19.6454 24.6385C19.5653 24.8796 19.3762 25 19.0785 25C18.9296 25 18.8035 24.9656 18.7063 24.8853C18.6031 24.8106 18.5401 24.6959 18.5115 24.5582C18.5 24.5182 18.5 24.4723 18.5 24.4264C18.5 24.3632 18.5057 24.2831 18.5344 24.1913C18.5573 24.0993 18.5859 24.0076 18.6203 23.9216L20.2468 19.4015ZM21.0086 20.4282H20.9914L20.2468 22.7571H21.7245L21.0086 20.4282Z" fill="#FFE600"/>
<path fill-rule="evenodd" clip-rule="evenodd" d="M23.5071 19.666C23.5071 19.4673 23.578 19.3038 23.7195 19.1811C23.8611 19.0585 24.0524 19 24.2932 19C24.4915 19 24.6614 19.0467 24.796 19.1344C24.9306 19.2221 25.0227 19.3447 25.058 19.4966C25.0723 19.555 25.0793 19.6077 25.0723 19.666V23.8725H27.6854C27.898 23.8725 28.075 23.9075 28.2167 23.9893C28.3583 24.0652 28.4504 24.1762 28.4786 24.3164C28.4929 24.3514 28.5 24.3983 28.5 24.4391C28.5 24.6202 28.422 24.7604 28.2662 24.8538C28.1105 24.9533 27.9192 25 27.6854 25H24.4208C24.1799 25 23.9816 24.9591 23.8329 24.8772C23.6842 24.7955 23.585 24.6669 23.5355 24.48C23.5141 24.4041 23.5071 24.3164 23.5 24.2172L23.5071 19.666Z" fill="#FFE600"/>
<path fill-rule="evenodd" clip-rule="evenodd" d="M28.5 19.6539C28.5 19.4589 28.5618 19.2983 28.6852 19.1779C28.8087 19.0574 28.9753 19 29.1852 19C29.3581 19 29.5 19.0459 29.6234 19.1319C29.7469 19.218 29.821 19.3384 29.8518 19.4876C29.8642 19.5449 29.8703 19.5966 29.8642 19.6539L29.8703 21.5754L32.0124 19.2868C32.1111 19.1892 32.1913 19.1205 32.2716 19.0688C32.3518 19.0229 32.4445 19 32.5555 19C32.7037 19 32.8395 19.0402 32.9629 19.1147C33.0865 19.1892 33.1605 19.2926 33.1913 19.4245C33.1913 19.4301 33.1976 19.4474 33.2037 19.476C33.2037 19.4933 33.2037 19.5163 33.2098 19.5277C33.2098 19.6195 33.1852 19.6998 33.1482 19.7686C33.105 19.8433 33.0494 19.912 32.9876 19.981L31.5865 21.4034L33.2408 23.8413L33.2902 23.9159C33.4013 24.0822 33.4692 24.2028 33.4876 24.2831C33.4876 24.2887 33.4939 24.306 33.5 24.3231C33.5 24.3461 33.5 24.3576 33.5 24.3632C33.5 24.587 33.4321 24.7533 33.2963 24.8509C33.1605 24.9485 32.9939 25 32.8024 25C32.6605 25 32.5494 24.9771 32.4629 24.9312C32.3766 24.8796 32.2839 24.7935 32.1976 24.6558L30.6234 22.304L29.8766 23.0268L29.8827 24.3404C29.8827 24.5354 29.821 24.6959 29.6976 24.8164C29.574 24.9368 29.4074 24.9943 29.1976 24.9943C29.0247 24.9943 28.8766 24.9485 28.7592 24.8623C28.6419 24.7706 28.5618 24.6558 28.5308 24.5009C28.5185 24.4435 28.5185 24.392 28.5185 24.3346L28.5 19.6539Z" fill="#FFE600"/>
</g>
</g>
<defs>
<clipPath id="clip0_90_5613">
<rect width="48" height="48" rx="24" fill="white"/>
</clipPath>
</defs>
</svg>
