<svg width="22" height="16" viewBox="0 0 22 16" fill="none" xmlns="http://www.w3.org/2000/svg">
<path fill-rule="evenodd" clip-rule="evenodd" d="M5.47967 0C5.17991 3.73977e-05 4.88398 0.0674589 4.61378 0.197278C4.34359 0.327098 4.10603 0.515995 3.91867 0.75L0.868672 4.563C0.0826721 5.545 0.782672 7 2.03967 7H2.99967V14C2.99967 14.5304 3.21039 15.0391 3.58546 15.4142C3.96053 15.7893 4.46924 16 4.99967 16H12.9997C13.5301 16 14.0388 15.7893 14.4139 15.4142C14.789 15.0391 14.9997 14.5304 14.9997 14V7H16.9997V15C16.9997 15.2652 17.105 15.5196 17.2926 15.7071C17.4801 15.8946 17.7345 16 17.9997 16C18.2649 16 18.5192 15.8946 18.7068 15.7071C18.8943 15.5196 18.9997 15.2652 18.9997 15V7H19.9597C21.2177 7 21.9167 5.545 21.1307 4.563L18.0807 0.751C17.8934 0.516811 17.6559 0.327724 17.3857 0.197729C17.1155 0.0677338 16.8195 0.000157395 16.5197 0H5.47967ZM6.99967 7C6.73446 7 6.4801 7.10536 6.29257 7.29289C6.10503 7.48043 5.99967 7.73478 5.99967 8V12C5.99967 12.2652 6.10503 12.5196 6.29257 12.7071C6.4801 12.8946 6.73446 13 6.99967 13H10.9997C11.2649 13 11.5192 12.8946 11.7068 12.7071C11.8943 12.5196 11.9997 12.2652 11.9997 12V8C11.9997 7.73478 11.8943 7.48043 11.7068 7.29289C11.5192 7.10536 11.2649 7 10.9997 7H6.99967Z" fill="#BABABA"/>
</svg>
